<svg width="161" height="20" viewBox="0 0 161 20" fill="none" xmlns="http://www.w3.org/2000/svg">
<g clip-path="url(#clip0_270_10531)">
<path d="M8.46921 17.564V4.2392C8.46921 3.96905 8.25017 3.75002 7.98003 3.75002H2.19741C1.5403 3.75002 1 3.28273 1 2.62562C1 1.9685 1.5403 1.50122 2.19741 1.50122H7.98003C9.5717 1.50122 10.8494 2.77895 10.8494 4.37062V17.5786C10.8494 18.2139 10.3383 18.7541 9.67392 18.7541C9.00951 18.7541 8.46921 18.2139 8.46921 17.5786M12.463 3.75002C11.7986 3.75002 11.2583 3.28273 11.2583 2.62562C11.2583 1.9685 11.7986 1.50122 12.463 1.50122H17.1212C17.7856 1.50122 18.3186 1.9685 18.3186 2.62562C18.3186 3.28273 17.7783 3.75002 17.1212 3.75002H12.463Z" fill="#231F20"/>
<path d="M33.5782 18.0825L26.715 3.84501C26.5909 3.62597 26.3499 3.47994 26.1017 3.47994C25.8534 3.47994 25.6344 3.62597 25.5103 3.84501L18.6252 18.0825C18.3331 18.6739 17.6176 18.9149 17.0335 18.6228C16.4421 18.3307 16.2012 17.6152 16.4932 17.0311L23.3783 2.94695C23.8894 1.89556 24.9481 1.25305 26.0944 1.25305C27.2407 1.25305 28.3505 1.91747 28.8397 2.96886L35.7029 17.0311C36.046 17.7393 35.5788 18.7469 34.6515 18.7469C34.2134 18.7469 33.768 18.506 33.5709 18.0898M24.5684 12.5189C24.5684 11.6355 25.1525 11.0733 26.109 11.0733C27.0655 11.0733 27.6496 11.6355 27.6496 12.5189C27.6496 13.4024 27.0582 13.9646 26.109 13.9646C25.1598 13.9646 24.5684 13.4024 24.5684 12.5189Z" fill="#231F20"/>
<path d="M36.9443 9.99266C36.9443 4.45829 41.0842 1.24573 46.6185 1.24573C49.4879 1.24573 51.8609 2.07807 53.6716 3.69896C54.1608 4.13704 54.263 4.87446 53.8176 5.36365C53.3795 5.85284 52.5691 5.77982 52.0799 5.34175C50.7292 4.14434 48.8746 3.50182 46.6185 3.50182C41.8654 3.50182 39.3173 6.39313 39.3173 9.99266C39.3173 14.1106 42.4057 16.4835 46.6185 16.4835C48.5534 16.4835 50.1451 16.0454 51.4666 15.1109C51.6126 15.0159 51.6856 14.8626 51.6856 14.7166V11.139H45.5087C44.8735 11.139 44.3332 10.6717 44.3332 10.0146C44.3332 9.35745 44.8735 8.89016 45.5087 8.89016H52.8611C53.5255 8.89016 54.0658 9.40125 54.0658 10.0657V14.7239C54.0658 17.5422 49.8238 18.6958 46.6185 18.7396C41.4273 18.8345 36.9443 15.5051 36.9443 9.99266Z" fill="#231F20"/>
<path d="M74.0347 18.0825L67.1715 3.84501C67.0474 3.62597 66.8065 3.47994 66.5582 3.47994C66.31 3.47994 66.091 3.62597 65.9668 3.84501L59.0817 18.0825C58.7897 18.6739 58.0742 18.9149 57.49 18.6228C56.8986 18.3307 56.6577 17.6152 56.9497 17.0311L63.8349 2.94695C64.3459 1.89556 65.4046 1.25305 66.5509 1.25305C67.6972 1.25305 68.807 1.91747 69.2962 2.96886L76.1594 17.0311C76.5026 17.7393 76.0353 18.7469 75.108 18.7469C74.67 18.7469 74.2246 18.506 74.0275 18.0898M65.0177 12.5189C65.0177 11.6355 65.6018 11.0733 66.5582 11.0733C67.5147 11.0733 68.0988 11.6355 68.0988 12.5189C68.0988 13.4024 67.5074 13.9646 66.5582 13.9646C65.6091 13.9646 65.0177 13.4024 65.0177 12.5189Z" fill="#231F20"/>
<path d="M82.1247 18.5206C80.533 18.5206 79.2334 17.221 79.2334 15.6585V4.36343C79.2334 2.79366 80.533 1.49403 82.1247 1.49403H86.5858C92.7116 1.44292 96.5593 3.64791 96.5593 9.99272C96.5593 16.3375 92.7116 18.5644 86.5858 18.5206H82.1247ZM82.1247 3.75013C81.8546 3.75013 81.6136 3.96917 81.6136 4.23931V15.7826C81.6136 16.0528 81.8546 16.2718 82.1247 16.2718H86.5858C91.4338 16.1258 94.1791 15.0452 94.1791 10C94.1791 4.95484 91.4338 3.89615 86.5858 3.75013H82.1247Z" fill="#231F20"/>
<path d="M103.006 18.5206C101.414 18.5206 100.115 17.221 100.115 15.6585V4.36343C100.115 2.79366 101.414 1.49403 103.006 1.49403H107.467C113.593 1.44292 117.441 3.64791 117.441 9.99272C117.441 16.3375 113.593 18.5644 107.467 18.5206H103.006ZM103.006 3.75013C102.736 3.75013 102.488 3.96917 102.488 4.23931V15.7826C102.488 16.0528 102.736 16.2718 103.006 16.2718H107.467C112.322 16.1258 115.06 15.0452 115.06 10C115.06 4.95484 112.315 3.89615 107.467 3.75013H103.006Z" fill="#231F20"/>
<path d="M119.887 9.99266C119.887 4.35607 124.472 1.24573 129.517 1.24573C134.884 1.24573 139.118 4.60431 139.118 9.99266C139.118 15.381 135.271 18.7396 129.517 18.7396C124.151 18.7396 119.887 15.5051 119.887 9.99266ZM122.26 9.99266C122.26 13.8404 125.049 16.4835 129.51 16.4835C133.971 16.4835 136.738 13.8404 136.738 9.99266C136.738 6.14488 133.971 3.50182 129.51 3.50182C125.049 3.50182 122.26 6.14488 122.26 9.99266Z" fill="#231F20"/>
<path d="M145.566 18.5206C143.974 18.5206 142.674 17.221 142.674 15.6585V4.36343C142.674 2.79366 143.974 1.49403 145.566 1.49403H150.027C156.152 1.44292 160 3.64791 160 9.99272C160 16.3375 156.152 18.5644 150.027 18.5206H145.566ZM145.566 3.75013C145.295 3.75013 145.047 3.96917 145.047 4.23931V15.7826C145.047 16.0528 145.295 16.2718 145.566 16.2718H150.027C154.882 16.1258 157.62 15.0452 157.62 10C157.62 4.95484 154.875 3.89615 150.027 3.75013H145.566Z" fill="#231F20"/>
</g>
<defs>
<clipPath id="clip0_270_10531">
<rect width="159" height="17.5085" fill="white" transform="translate(1 1.24573)"/>
</clipPath>
</defs>
</svg>